<svg width="48" height="48" viewBox="0 0 192 192" xmlns="http://www.w3.org/2000/svg"><path d="M18.204 176.021h155.592V184H18.204zm5.985-15.345h143.623v11.048H24.189zm.383-125.823h142.856v15.344H24.572zM96 8L21.196 25.493l4.297 4.756h141.014l4.297-4.756M44.026 98.773a984.734 984.734 0 00-.614-22.603c-.278-7.095-.735-14.184-1.08-21.277-.03-.612-.289-.745-.797-.856a29.743 29.743 0 00-6.309-.674 29.736 29.736 0 00-6.309.674c-.508.111-.768.243-.797.856-.345 7.093-.802 14.182-1.08 21.277a990.454 990.454 0 00-.614 22.603c-.087 5.341-.033 10.685.051 16.027.093 5.926.225 11.854.465 17.775.257 6.355.655 12.705 1.004 19.056.067 1.217.192 2.431.287 3.614 2.345.61 4.67.963 6.994.992 2.324-.029 4.648-.382 6.994-.992.095-1.183.219-2.397.286-3.614.349-6.351.747-12.701 1.004-19.056.24-5.922.372-11.849.465-17.775.083-5.342.138-10.686.05-16.027zm38.896 0a990.454 990.454 0 00-.614-22.603c-.278-7.095-.736-14.184-1.08-21.277-.03-.612-.289-.745-.797-.856a29.736 29.736 0 00-6.309-.674 29.736 29.736 0 00-6.309.674c-.508.111-.768.243-.797.856-.345 7.093-.802 14.182-1.08 21.277a990.454 990.454 0 00-.614 22.603c-.087 5.341-.033 10.685.051 16.027.094 5.926.225 11.854.465 17.775.258 6.355.655 12.705 1.004 19.056.067 1.217.192 2.431.286 3.614 2.345.61 4.67.963 6.994.992 2.324-.029 4.648-.382 6.994-.992.095-1.183.219-2.397.286-3.614.348-6.351.746-12.701 1.004-19.056.24-5.922.372-11.849.465-17.775.085-5.342.139-10.686.051-16.027zm44.111 0a984.734 984.734 0 00-.614-22.603c-.278-7.095-.735-14.184-1.08-21.277-.03-.612-.289-.745-.798-.856a29.73 29.73 0 00-6.309-.674 29.736 29.736 0 00-6.309.674c-.508.111-.768.243-.797.856-.345 7.093-.802 14.182-1.08 21.277a984.734 984.734 0 00-.614 22.603c-.087 5.341-.033 10.685.051 16.027.094 5.926.225 11.854.465 17.775.258 6.355.655 12.705 1.004 19.056.067 1.217.192 2.431.286 3.614 2.345.61 4.67.963 6.994.992 2.324-.029 4.648-.382 6.994-.992.095-1.183.219-2.397.286-3.614.349-6.351.746-12.701 1.004-19.056.24-5.922.371-11.849.465-17.775.085-5.342.139-10.686.052-16.027zm38.974 0a984.734 984.734 0 00-.614-22.603c-.278-7.095-.736-14.184-1.08-21.277-.03-.612-.289-.745-.798-.856a29.73 29.73 0 00-6.309-.674 29.743 29.743 0 00-6.309.674c-.508.111-.768.243-.797.856-.345 7.093-.803 14.182-1.08 21.277a990.454 990.454 0 00-.614 22.603c-.087 5.341-.033 10.685.051 16.027.094 5.926.225 11.854.465 17.775.257 6.355.655 12.705 1.004 19.056.067 1.217.192 2.431.286 3.614 2.346.61 4.67.963 6.994.992 2.324-.029 4.649-.382 6.994-.992.095-1.183.219-2.397.286-3.614.349-6.351.747-12.701 1.004-19.056.24-5.922.371-11.849.465-17.775.086-5.342.14-10.686.052-16.027z" fill="#424242"/></svg>