<svg width="48" height="48" viewBox="0 0 192 192" xmlns="http://www.w3.org/2000/svg"><path d="M37.333 49.067V166.4H25.6c-9.72 0-17.6-7.88-17.6-17.6V66.667c0-9.72 7.88-17.6 17.6-17.6h11.733zm5.867 0h26.4V38.8c0-7.29 5.91-13.2 13.2-13.2h26.4c7.29 0 13.2 5.91 13.2 13.2v10.267h26.4V166.4H43.2V49.067zm35.2 0h35.2V38.8a4.4 4.4 0 00-4.4-4.4H82.8a4.4 4.4 0 00-4.4 4.4v10.267zm76.267 0H166.4c9.72 0 17.6 7.88 17.6 17.6V148.8c0 9.72-7.88 17.6-17.6 17.6h-11.733V49.067z" fill="red"/><linearGradient id="a" gradientUnits="userSpaceOnUse" x1=".707" y1="192.208" x2=".881" y2="192.208" gradientTransform="rotate(55 -76105.299 -39843.076) scale(412.826)"><stop offset="0" stop-color="#666"/><stop offset="1" stop-color="#333"/></linearGradient><circle cx="96" cy="108" r="25.731" fill="url(#a)"/><path d="M96 136.453c-15.755 0-28.452-12.698-28.452-28.453 0-15.685 12.765-28.452 28.452-28.452 15.754 0 28.453 12.698 28.453 28.452 0 15.754-12.7 28.453-28.453 28.453m1.561-53.714c0 1.289.34 3.53-1.562 3.53-1.901 0-1.562-2.241-1.562-3.53a25.324 25.324 0 00-23.7 23.699c1.29 0 3.531-.34 3.531 1.561 0 1.902-2.241 1.563-3.531 1.563a25.325 25.325 0 0023.7 23.699c0-1.29-.339-3.532 1.562-3.532 1.902 0 1.562 2.242 1.562 3.532 12.698-.816 22.884-11.001 23.7-23.699-1.292 0-3.532.339-3.532-1.563 0-1.901 2.24-1.561 3.532-1.561-.748-12.766-10.933-22.884-23.7-23.699m1.087 28.453V128.1h-4.21v-16.908c-.407-.203-.815-.543-1.155-.883l-12.359 3.327-1.087-4.073 12.36-3.328a4.488 4.488 0 014.344-3.463 4.479 4.479 0 014.484 4.482c0 1.629-.883 3.191-2.377 3.938z" fill="#E5E5E5"/></svg>