<svg width="48" height="48" viewBox="0 0 192 192" xmlns="http://www.w3.org/2000/svg"><path d="M177.816 72.821c13.823 11.934 1.226 12.259-6.387 13.743-10.705 2.086-23.127-5.308-32.196 5.922-6.49 11.77-17.126 20.253-24.708 31.157-13.238-1.038-22.816 7.034-33.116 13.306-25.193-13.078-27.564-27.418-7.34-43.562 8.585-6.853 19.152-8.664 29.036-12.201 5.596-2.126 11.121-4.477 16.607-6.898 12.249-4.585 24.862-7.074 38.012-6.243 7.351-1.188 13.61 2.257 20.092 4.776z" fill="#CDCDCD"/><path d="M11.078 137.039c-12.215-36.01 13.401-75.008 50.881-77.333 8.429-.523 16.884-.637 25.327-.939 4.124 3.544 4.674 7.965 3.185 12.892-10.088 12.225-28.46 12.694-37.457 26.473-8.175 7.626-10.076 18.523-14.55 28.039-5.818 12.373-13.666 18.802-27.386 10.868z" fill="#747474"/><path d="M107.435 85.786c-4.037 6.105-10.947 4.952-16.705 6.976-27.322 9.604-29.801 22.143-9.321 44.189-1.937 19.209-2.007 19.325-16.673 10.414-13.507-8.207-28.892 11.485-41.856-3.011 16.334-11.783 19.032-30.922 25.828-47.876 17.385-15.665 35.913-24.97 58.727-10.692z" fill="#BDBDBD"/><path d="M87.911 72.942l-.624-14.174.249.679c14.77-6.557 27.325.352 39.992 6.579 11.568-5.788 3.621-19.613 11.147-27.066 8.98 10.852 16.417 22.655 21.961 35.625-12.14 9.304-27.211-3.402-39.437 5.253-11.719.709-25.336 10.574-33.288-6.896z" fill="#727272"/><path d="M160.636 74.586c-17.351-5.691-22.01-19.205-21.961-35.624 23.94-1.306 21.788 27.551 39.142 33.86l-17.181 1.764z" fill="#4D4D4D"/><path d="M49.652 99.133c6.611 24.27-10.846 34.291-26.771 45.22-4.673-1.247-10.931.064-11.804-7.314 13.166 1.93 17.734-5.797 21.524-16.898 3.521-10.316 3.808-23.261 16.502-28.541 2.111 1.529 2.895 3.154 2.356 4.877-.555 1.77-1.156 2.656-1.807 2.656z" fill="#868686"/><path d="M127.528 66.027c-13.757.4-27.649 1.621-39.992-6.579 12.652-26.695 15.024-26.305 39.992 6.579z" fill="#515151"/><path d="M114.525 123.644c2.047-15.294 8.805-26.852 24.708-31.157l5.216 31.157h-29.924z" fill="#686868"/><path d="M49.652 99.133c-.182-2.508-.364-5.016-.548-7.528 9.09-14.219 22.748-18.941 38.807-18.665 9.375 10.594 22.345 3.82 33.282 6.896-4.583 1.985-9.171 3.965-13.759 5.948-20.278.044-40.902-1.408-57.782 13.349z" fill="#898989"/></svg>