<svg width="48" height="48" viewBox="0 0 192 192" xmlns="http://www.w3.org/2000/svg"><radialGradient id="a" cx="270.454" cy="2.145" r="77.408" gradientTransform="matrix(1 0 0 -1 -210 84)" gradientUnits="userSpaceOnUse"><stop offset="0" stop-color="#7ac943"/><stop offset=".25" stop-color="#0f0"/><stop offset="1" stop-color="#3fa9f5"/></radialGradient><circle cx="95.996" cy="104.782" r="42.681" fill="url(#a)"/><path fill="#E6E1E5" d="M185.406 62.587l-10.577-10.556c-3.135-3.123-7.255-5.748-10.654-6.957 2.759-2.187 4.536-5.559 4.536-9.345v-7.536c0-5.891-4.294-10.786-9.915-11.748V9.653c0-.912-.74-1.653-1.653-1.653H34.025c-.912 0-1.653.74-1.653 1.653v7.194c-4.788 1.552-8.263 6.05-8.263 11.348v7.535c0 6.58 5.353 11.932 11.932 11.932h3.229c-.969 1.881-2.894 3.168-5.108 3.168a1.64 1.64 0 00-1.23.559c-.34.302-.559.739-.559 1.23v119.145c0 6.518 5.704 12.235 12.206 12.235h102.793c6.525 0 12.25-5.717 12.25-12.235V52.62c0-.844-.637-1.534-1.455-1.633a1.645 1.645 0 00-.693-.157c-2.255 0-4.267-1.301-5.292-3.168h8.539c2.433 0 7.746 2.697 11.775 6.71l10.576 10.554c.323.322.745.483 1.168.483a1.65 1.65 0 001.17-.485 1.655 1.655 0 00-.004-2.337zm-29.917-43.019v7.437h-4.131v-7.437h4.131zm-7.436 7.437H43.114v-7.437h104.939v7.437zm-108.244 0h-4.131v-7.418c.121-.005.241-.018.364-.018h3.768v7.436zm-4.132 3.305h4.131v7.418a9.173 9.173 0 00-4.131-1.908v-5.51zm7.541 14.047a9.274 9.274 0 00-.104-.965V30.31h104.939v14.047H43.218zm108.14-14.047h4.131v5.518a8.85 8.85 0 00-4.131 2.018V30.31zM35.677 11.305h119.812v4.958H36.041c-.122 0-.242.015-.364.018v-4.976zM27.414 35.73v-7.536c0-3.443 2.033-6.414 4.958-7.796v16.924c0 .912.74 1.653 1.653 1.653 2.795 0 5.212 2.066 5.784 4.726v.655h-3.768c-4.756.001-8.627-3.87-8.627-8.626zm128.902 18.322v117.713c0 4.757-4.18 8.93-8.945 8.93H44.578c-4.741 0-8.901-4.173-8.901-8.93V53.996c3.385-.582 6.142-3.064 7.151-6.334h105.775c1.099 3.351 4.124 5.925 7.713 6.39zm-1.653-9.695h-3.174c.265-3.013 2.698-5.381 5.653-5.381.912 0 1.653-.74 1.653-1.653V19.816c3.785.912 6.61 4.318 6.61 8.379v7.535c0 4.757-3.87 8.626-8.626 8.626h-2.116zm-8.117 126.436a1.469 1.469 0 01-1.879.885c-31.4-11.304-65.983-11.304-97.385 0a1.467 1.467 0 11-.995-2.762c32.043-11.536 67.334-11.536 99.374 0a1.466 1.466 0 01.885 1.877z"/><path d="M96.086 149.329c.009 0 .017-.015.026-.015.003 0 .007-.018.01-.018h.014c.003 0 .007.018.01.018.009 0 .017.006.026.006 24.563-.022 44.54-20.063 44.54-44.631 0-24.543-19.936-44.632-44.464-44.632h-.012l-.107-.002-.113.002h-.004c-24.529 0-44.465 20.093-44.465 44.637 0 24.566 19.975 44.612 44.539 44.635zM64.032 78.245a59.103 59.103 0 0014.949 6.7 61.302 61.302 0 00-3.27 19.732H54.486c.017-10.033 3.599-19.244 9.546-26.432zm32.097-14.592c5.793 5.338 10.288 11.935 13.269 19.294a59.016 59.016 0 01-26.527-.026c2.98-7.349 7.471-13.936 13.258-19.268zm.06 23.728c4.788 0 9.576-.562 14.245-1.667a58.386 58.386 0 013.175 18.962h-34.96a58.369 58.369 0 013.184-18.987 61.916 61.916 0 0014.356 1.692zm41.583 17.295h-21.226a61.308 61.308 0 00-3.26-19.701 59.143 59.143 0 0014.981-6.68c5.921 7.181 9.487 16.372 9.505 26.381zm-41.643 41.17c-5.686-5.239-10.121-11.689-13.101-18.883a59.022 59.022 0 0126.191.026c-2.98 7.183-7.413 13.625-13.09 18.857zM81.967 124.2a58.02 58.02 0 01-3.229-16.218h34.782a58.024 58.024 0 01-3.239 16.246 62.025 62.025 0 00-28.314-.028zm34.497-16.219h21.172c-.69 8.936-4.207 17.09-9.663 23.564a59.152 59.152 0 00-14.841-6.579 61.022 61.022 0 003.332-16.985zm-40.671 0a60.955 60.955 0 003.322 16.953 59.19 59.19 0 00-14.872 6.562 41.456 41.456 0 01-9.621-23.515h21.171zm-9.55 25.728a56.334 56.334 0 0113.91-6.018c2.814 6.937 6.908 13.235 12.12 18.517-10.175-.94-19.295-5.553-26.03-12.499zm33.74 12.499c5.205-5.275 9.293-11.562 12.108-18.486a56.321 56.321 0 0113.878 6.033c-6.728 6.92-15.833 11.516-25.986 12.453zm26.299-70.136a56.284 56.284 0 01-14.012 6.142c-2.818-7.096-6.972-13.537-12.287-18.922 10.312.95 19.54 5.677 26.299 12.78zM92.274 63.291C86.967 68.669 82.819 75.098 80 82.182a56.256 56.256 0 01-13.981-6.157c6.755-7.077 15.966-11.785 26.255-12.734z"/></svg>