<svg width="48" height="48" viewBox="0 0 192 192" xmlns="http://www.w3.org/2000/svg"><path d="M144.241 136.175c-8.713 0-17.481-3.18-26.804-9.721-9.012-6.307-17.486-15.024-25.683-23.453-8.913-9.168-18.128-18.647-27.665-24.609-5.918-3.698-11.252-5.497-16.304-5.497-9.541 0-16.762 4.218-20.334 11.88-1.555 3.362-2.382 7.337-2.382 11.479 0 3.315.482 6.407 1.429 9.19 3.011 8.948 10.343 13.662 21.211 13.662 5.012 0 10.404-2.086 16.481-6.377 4.033-2.859 8.501-6.773 14.046-12.303l12.054 12.086c-6.321 6.305-11.33 10.67-16.24 14.151-9.071 6.404-17.682 9.512-26.341 9.512-18.084 0-32.057-9.442-37.378-25.257C8.788 106.389 8 101.446 8 96.254c0-6.693 1.336-12.974 3.971-18.669 6.451-13.836 19.5-21.76 35.815-21.76 8.345 0 16.639 2.647 25.352 8.093 11.287 7.058 21.235 17.29 30.856 27.183 7.993 8.222 15.542 15.987 23.239 21.374 6.361 4.464 11.922 6.631 17.007 6.631 11.104 0 18.503-4.711 21.399-13.623.855-2.639 1.29-5.581 1.29-8.734 0-4.46-.88-8.672-2.545-12.182-3.615-7.639-10.579-11.672-20.144-11.672-5.621 0-11.388 1.883-17.625 5.757-3.925 2.443-8.112 5.723-12.796 10.026-.3.276-.59.545-.882.816l-11.648-12.478c.329-.306.659-.612.989-.914 5.467-5.023 10.482-8.932 15.325-11.946 9.026-5.607 17.738-8.331 26.636-8.331 16.159 0 29.124 7.811 35.57 21.433 2.74 5.776 4.189 12.517 4.189 19.49 0 4.939-.714 9.649-2.123 14-5.172 15.926-19.241 25.427-37.634 25.427" fill="#dd671a"/></svg>